M48
;DRILL file {KiCad 4.0.5} date 05/27/17 17:45:35
;FORMAT={-:-/ absolute / metric / decimal}
FMAT,2
METRIC,TZ
T1C0.600
T2C0.800
T3C1.143
T4C1.200
T5C1.400
%
G90
G05
M71
T1
X180.1Y-93.
X180.1Y-94.27
X180.1Y-95.54
T2
X143.4Y-113.9
X145.94Y-113.9
X188.8Y-117.1
X207.7Y-93.6
X207.7Y-106.3
X214.2Y-117.1
T3
X144.32Y-98.26
X154.48Y-103.34
X218.21Y-105.33
X223.29Y-95.17
T4
X145.Y-79.25
X154.1Y-114.7
X180.Y-79.25
X180.1Y-114.7
X187.5Y-80.01
X222.5Y-80.01
T5
X195.Y-93.2
X195.Y-108.44
T0
M30
